<svg width="142" height="142" viewBox="0 0 142 142" fill="none" xmlns="http://www.w3.org/2000/svg">
<g clip-path="url(#clip0)">
<path d="M71.0001 138.678C107.666 138.678 137.389 108.305 137.389 70.839C137.389 33.373 107.665 3 71.0001 3C34.3341 3 4.61108 33.373 4.61108 70.839C4.61108 108.305 34.3341 138.678 71.0001 138.678Z" fill="#43A16F" stroke="#324154" stroke-width="3.397"/>
<path d="M118.881 114.363L136.473 119.511L133.696 122.58L134.466 126.737L116.859 121.583L118.881 114.363Z" fill="#282C35"/>
<path d="M111.436 119.996L134.465 126.738L134.846 128.79L135.967 134.842L135.928 134.979L109.412 127.217L111.436 119.996Z" fill="#387855"/>
<path d="M120.904 107.143L142 113.316L141.966 113.439L137.878 117.958L136.473 119.512L118.881 114.364L120.904 107.143Z" fill="#377755"/>
<path d="M115.184 105.538L109.452 127.189L117.466 125.656L122.631 107.648L115.184 105.538Z" fill="#2A4234"/>
<path d="M23.1191 114.418L5.5271 119.566L8.3041 122.635L7.5341 126.791L25.1421 121.638L23.1191 114.418Z" fill="#282C35"/>
<path d="M30.564 120.052L7.53496 126.792L7.15496 128.846L6.03296 134.897L6.07296 135.034L32.588 127.272L30.564 120.052Z" fill="#387855"/>
<path d="M21.095 107.198L0 113.373L0.034 113.493L4.122 118.014L5.528 119.567L23.12 114.419L21.095 107.198Z" fill="#377755"/>
<path d="M26.8169 105.593L32.5489 127.245L24.5339 125.71L19.3689 107.703L26.8169 105.593Z" fill="#2A4234"/>
<path d="M20.303 111.102C36.297 106.61 52.906 103.623 69.746 103.252C87.641 102.874 105.566 105.594 122.473 111.154L119.911 118.256C103.875 112.983 86.861 110.399 69.921 110.762C53.947 111.09 38.018 113.975 22.519 118.309L20.303 111.102Z" fill="#324154"/>
<path d="M17.9451 103.699C34.7261 99.017 52.1531 95.906 69.8211 95.519C88.5971 95.126 107.404 97.96 125.144 103.753L122.456 111.153C105.63 105.658 87.7791 102.965 70.0061 103.344C53.2461 103.686 36.5331 106.692 20.2721 111.207L17.9451 103.699Z" fill="#47B379"/>
<path d="M22.4189 118.201C37.6809 113.517 53.5289 110.408 69.5979 110.021C86.6729 109.627 103.778 112.461 119.911 118.255L117.465 125.655C102.164 120.159 85.9299 117.466 69.7659 117.844C54.5229 118.188 39.3239 121.192 24.5349 125.708L22.4189 118.201Z" fill="#47B379"/>
<path d="M106.195 92.939L103.085 91.299L100.001 92.989L100.563 89.46L98.0371 86.983L101.498 86.44L103.02 83.219L104.596 86.414L108.063 86.898L105.577 89.417L106.195 92.939Z" fill="white"/>
<path d="M79.94 21.915L71.133 37.155L62.326 21.915H33L71.133 87.915L109.267 21.915H79.94V21.915Z" fill="#42B883"/>
<path d="M79.94 21.915L71.133 37.155L62.326 21.915H48.252L71.133 61.514L94.0149 21.915H79.94Z" fill="#35495E"/>
<path d="M36.3761 101.662C37.8431 101.614 38.5761 101.599 40.0371 101.584C39.8071 106.042 39.7241 108.269 39.6291 112.717C39.3981 113.014 39.2851 113.162 39.0571 113.459C37.6111 113.8 36.8891 113.979 35.4511 114.354C35.1481 114.174 34.9951 114.084 34.6901 113.906C32.6131 109.81 31.5401 107.774 29.3191 103.734C30.7321 103.182 31.4411 102.918 32.8671 102.397C34.3661 105.593 35.0981 107.196 36.5251 110.417C36.4301 106.919 36.4011 105.167 36.3761 101.662Z" fill="white"/>
<path d="M46.9491 103.156C48.0051 102.95 48.5331 102.851 49.5931 102.662C50.0411 106.197 50.2651 107.963 50.7141 111.497C49.9011 111.604 49.4961 111.662 48.6851 111.78C48.5311 111.624 48.4531 111.547 48.2981 111.39C48.2081 111.582 48.1651 111.676 48.0751 111.869C46.1421 112.171 45.1751 112.338 43.2511 112.699C42.8081 112.538 42.5861 112.459 42.1411 112.301C41.4931 109.028 41.1681 107.39 40.5161 104.116C41.5431 103.959 42.0571 103.887 43.0851 103.746C43.4091 104.013 43.5691 104.144 43.8901 104.412C44.4241 106.524 44.6891 107.583 45.2111 109.698C45.9571 109.668 46.3301 109.653 47.0741 109.632C46.8211 107.374 46.6951 106.245 46.4491 103.986C46.6481 103.653 46.7481 103.488 46.9491 103.156Z" fill="white"/>
<path d="M56.791 108.102C57.939 108.07 58.512 108.058 59.659 108.047C59.754 108.481 59.801 108.699 59.894 109.133C59.611 109.692 59.469 109.974 59.191 110.534C56.491 110.78 55.144 110.929 52.457 111.291C52.025 111.103 51.808 111.012 51.373 110.827C50.97 107.92 50.769 106.466 50.363 103.559C50.711 103.115 50.888 102.893 51.241 102.451C54.047 102.164 55.452 102.05 58.262 101.882C58.773 102.153 59.027 102.294 59.533 102.57C59.537 104.252 59.539 105.09 59.55 106.771C59.197 107.042 59.022 107.179 58.672 107.452C56.921 107.542 56.045 107.597 54.294 107.735C54.319 108.143 54.332 108.35 54.357 108.758C55.245 108.718 55.69 108.701 56.578 108.674C56.662 108.445 56.705 108.33 56.791 108.102ZM56.387 105.964C56.292 105.354 56.244 105.049 56.149 104.439C55.227 104.489 54.766 104.515 53.844 104.578C53.911 105.147 53.945 105.435 54.012 106.005C54.963 105.981 55.438 105.973 56.387 105.964Z" fill="white"/>
<path d="M71.188 98.086C72.671 98.023 73.413 97.998 74.899 97.968C74.606 102.807 74.465 105.227 74.201 110.067C73.148 110.085 72.625 110.101 71.573 110.136C70.394 107.981 69.783 106.909 68.523 104.778C68.47 106.805 68.444 107.816 68.396 109.842C67.166 109.988 66.551 110.068 65.326 110.237C65.176 105.389 65.103 102.965 64.959 98.117C66.39 98.062 67.105 98.042 68.536 98.017C69.617 100.031 70.143 101.042 71.162 103.073C71.172 101.077 71.178 100.081 71.188 98.086Z" fill="white"/>
<path d="M83.786 101.825C84.094 102.246 84.245 102.459 84.548 102.882C84.303 105.537 84.182 106.864 83.94 109.52C83.665 109.933 83.529 110.139 83.257 110.553C80.504 110.364 79.127 110.296 76.371 110.227C75.966 110 75.763 109.89 75.354 109.666C75.397 106.719 75.416 105.245 75.456 102.299C75.725 101.897 75.861 101.697 76.133 101.296C79.199 101.438 80.73 101.542 83.786 101.825ZM81.048 104.061C80.155 103.971 79.708 103.929 78.814 103.852C78.766 105.468 78.743 106.277 78.693 107.893C79.52 107.998 79.935 108.055 80.76 108.171C80.875 106.527 80.932 105.704 81.048 104.061Z" fill="white"/>
<path d="M93.1012 102.787C93.3822 103.242 93.5212 103.47 93.7982 103.927C93.6302 105.013 93.5462 105.558 93.3782 106.644C93.1492 106.915 93.0352 107.049 92.8072 107.32C91.8252 107.171 91.3322 107.099 90.3482 106.965C90.3452 106.234 90.3412 105.868 90.3362 105.137C89.6092 105.015 89.2452 104.955 88.5172 104.842C88.2582 107.306 88.1302 108.535 87.8712 110.999C86.5982 110.798 85.9572 110.705 84.6792 110.529C84.9232 107.059 85.0452 105.324 85.2842 101.854C86.0942 101.928 86.4962 101.968 87.3052 102.052C87.4092 102.265 87.4602 102.369 87.5642 102.582C87.7352 102.434 87.8222 102.36 87.9942 102.212C90.0392 102.411 91.0612 102.524 93.1012 102.787Z" fill="white"/>
<path d="M101.932 109.941C101.792 110.66 101.719 111.016 101.579 111.735C101.174 112.16 100.975 112.375 100.574 112.801C98.1371 112.378 96.9161 112.19 94.4701 111.864C94.2951 111.443 94.2061 111.237 94.0291 110.817C94.3721 108.617 94.5461 107.513 94.8901 105.313C94.6571 105.223 94.5391 105.178 94.3051 105.089C94.3991 104.375 94.4461 104.02 94.5391 103.306C94.7001 103.187 94.7811 103.128 94.9431 103.01C95.1311 103.025 95.2231 103.031 95.4121 103.047C95.6101 102.188 95.709 101.757 95.909 100.899C96.919 101.066 97.4231 101.154 98.4301 101.337C98.5611 101.519 98.6301 101.61 98.7601 101.793C98.6391 102.484 98.5771 102.828 98.4561 103.52C99.8471 103.781 100.541 103.919 101.927 104.209C102.048 104.449 102.109 104.567 102.229 104.808C102.084 105.5 102.012 105.85 101.868 106.542C101.682 106.625 101.589 106.666 101.403 106.749C100.078 106.465 99.4151 106.328 98.0851 106.071C97.7791 107.566 97.6241 108.313 97.3211 109.809C97.9051 109.929 98.1971 109.994 98.7801 110.12C99.0191 109.586 99.1421 109.317 99.3841 108.784C100.29 109 100.74 109.112 101.643 109.341C101.758 109.581 101.817 109.702 101.932 109.941Z" fill="white"/>
<path d="M108.153 111.712C109.258 112.048 109.811 112.224 110.91 112.579C110.862 113.02 110.839 113.24 110.79 113.682C110.342 114.121 110.118 114.34 109.675 114.783C107.019 114.155 105.686 113.872 103.013 113.36C102.661 113.045 102.487 112.888 102.131 112.576C102.671 109.691 102.939 108.25 103.476 105.364C103.948 105.053 104.184 104.898 104.661 104.591C107.422 105.21 108.799 105.549 111.535 106.286C111.936 106.707 112.136 106.918 112.532 107.341C112.001 108.937 111.74 109.736 111.215 111.333C110.791 111.477 110.577 111.551 110.156 111.697C108.456 111.223 107.604 110.998 105.892 110.572C105.786 110.968 105.731 111.167 105.624 111.562C106.483 111.806 106.914 111.932 107.77 112.189C107.924 111.999 107.998 111.901 108.153 111.712ZM108.448 109.557C108.552 108.949 108.605 108.644 108.708 108.035C107.812 107.788 107.365 107.668 106.467 107.433C106.351 107.995 106.289 108.277 106.172 108.838C107.085 109.119 107.54 109.262 108.448 109.557Z" fill="white"/>
</g>
<defs>
<clipPath id="clip0">
<rect width="142" height="142" fill="white"/>
</clipPath>
</defs>
</svg>
